<svg id="Layer_1" enable-background="new 0 0 496.001 496.001" height="512" viewBox="0 0 496.001 496.001" width="512" xmlns="http://www.w3.org/2000/svg"><path d="m448 436.001c0 33.14-26.86 60-60 60h-280c-33.138 0-60-26.859-60-60 0-33.14 26.86-60 60-60h18.09c6.46 9.65 17.47 16 29.95 16h183.92c12.519 0 23.537-6.405 29.95-16h18.09c33.138 0 60 26.859 60 60z" fill="#ffe4cc"/><path d="m388 496.001h-12v-60l-112 28-.87-2.62c-4.26-12.77-16.21-21.38-29.66-21.38-11.853 0-17.61 5.423-33.47 16l-80-20v60h-12c-33.138 0-60-26.859-60-60 0-33.124 26.846-60 60-60h18.09c6.46 9.65 17.47 16 29.95 16h183.92c12.519 0 23.537-6.405 29.95-16 18.741 0 40.418-2.512 60.52 17.57 37.437 37.472 11.206 102.43-42.43 102.43z" fill="#fecb82"/><path d="m369.91 376.001c-6.41 9.591-17.426 16-29.95 16h-183.92c-12.21 0-23.342-6.128-29.95-16-2.47.009-21.52.078-21.85.12-31.503 1.944-56.24 28.107-56.24 59.88 0 33.14 26.86 60 60 60h12v-16h-12c-39.407 0-58.539-47.716-31.11-75.11 9.418-9.431 20.429-12.89 33.19-12.89 6.44 9.65 17.44 16 29.92 16h196c18.419 0 33.719-13.856 35.76-31.88-3.123-.2-5.663-.12-1.85-.12z" fill="#edac5f"/><g fill="#f9cfac"><path d=""/><path d="m208 480.001c-12.813 0-18.251-16.312-8-24l-32.572 13.029c-7.234 2.894-7.752 10.971-7.428 10.971-16.912 0-31.775-11.211-36.421-27.472l-3.579-12.528v56h256v-16z"/><path d="m376 355.961c0 19.8-16.087 36.04-36.04 36.04h-183.92c-22.997 0-40.197-21.327-35.18-43.86l10.31-46.43c12.227-54.962 60.988-93.71 116.83-93.71 56.277 0 104.703 39.136 116.83 93.71 11.09 49.907 11.17 48.906 11.17 54.25z"/></g><path d="m375.14 348.141-10.31-46.43c-4.77-21.45-15.13-40.48-29.34-55.69-11.437-10.157-25.176-18.266-40.18-23.46-.55.76-1.35 1.5-2.36 2.2-.825-.351-3.275-1.305-5.86-2.2-9.096 12.553-69.076 12.352-78.17.01-2.11.72-4.2 1.51-6.26 2.35-27.312 16.319-48.093 43.51-55.49 76.79-11.214 50.454-10.646 47.548-10.94 50.26 1.99 18.021 17.27 32.03 35.81 32.03 198.697 0 185.071.48 191.92-1.18 9.166-7.724 14.141-21.38 11.18-34.68z" fill="#ffe4cc"/><path d="m276 372.001c0 7.83-3.23 14.92-8.43 20h-27.57c0-4.42 3.58-8 8-8 6.62 0 12-5.38 12-12 0-6.593-5.351-12-12-12-4.42 0-8-3.58-8-8 0-16.069 36-7.183 36 20z" fill="#f9cfac"/><path d="m305.78 288.001 14.22 64h-6.06c-21.092 0-42.126-8.186-57.94-24h-16c-15.238 15.238-36.043 24-57.94 24h-14.06l7.73-34.78c14.88-2.626 19.993-3.429 25.03-4.64 47.31-11.23 83.15-48.99 92.71-95.61 30.579 12.542 55.809 37.879 67.44 71.03z" fill="#fecb82"/><path d="m360.91 288.001h-3.13c-12.811-29.544-36.9-52.292-66.05-63.73.66-2.41 1.24-4.84 1.74-7.3 30.578 12.542 55.809 37.879 67.44 71.03z" fill="#edac5f"/><path d="m336 352.001h-16c-12.664-57.023-9.477-42.684-14.22-64h14.22z" fill="#f9cfac"/><path d="m320 143.741c-3.914 7.789-7.218 11.711-16.5 24.26h-1.82c-6.89 23.13-28.3 40-53.68 40-25.409 0-46.815-16.931-53.68-40h-1.82l-9.32-12.6c-32.88-44.47-9.2-105.12 40.82-119.99v-11.41c0-21.309 25.887-32.019 40.97-16.97 8.318 8.337 7.03 16.894 7.03 28.38 45.77 13.61 69.48 65.54 48 108.33z" fill="#f9cfac"/><path d="m304 112.001v24c0 30.874-25.256 56.919-56.13 56.849-23.251-.053-39.87-18.858-39.87-40.027 0-33.229 26.235-56.822 56-56.822h23.977c8.833 0 16.01 7.154 16.023 16z" fill="#ffe4cc"/><path d="m248 .001c-17.645 0-32 14.355-32 32v16h64v-16c0-17.644-14.355-32-32-32z" fill="#797a7a"/><path d="m312.82 155.401-9.32 12.6h-1.82c3.127-10.499 2.32-14.718 2.32-56 0-5.56-.81-10.93-2.32-16h-4.74c-5.447 0-10.488-3.075-12.94-8-2.45-4.9-7.46-8-12.94-8h-46.12c-5.447 0-10.488 3.075-12.94 8-2.45 4.9-7.46 8-12.94 8h-4.74c-3.127 10.499-2.32 14.718-2.32 56 0 5.56.81 10.93 2.32 16h-1.82l-9.32-12.6c-32.88-44.47-9.2-105.12 40.82-119.99 15.066-4.502 32.572-4.61 48 0 50.02 14.87 73.7 75.52 40.82 119.99z" fill="#6d6d6d"/><path d="m388 496.001h-12v-16h20c27.5 0 49.85-21.283 51.86-48.08 2.332 34.97-25.365 64.08-59.86 64.08z" fill="#edac5f"/><path d="m321 352.001c-7.24 0-10.45.103-15.77-.47-16.23-1.73-31.6-8.28-44.11-18.82-4.854-4.101-10.97-5.44-16.62-4.46-10.305 1.635-11.268 9.283-31.08 17.51-17.724 7.346-31.063 6.24-45.42 6.24l7.73-34.78 16.65-2.93-1.8 4.84c-1.35 3.63 1.23 7.53 5.11 7.72 6.1-1.02 12.05-2.74 17.73-5.09 19.618-8.146 20.844-15.886 31.08-17.51 5.61-.973 11.715.317 16.62 4.46 14.633 12.322 32.936 19.29 53.88 19.29z" fill="#edac5f"/><path d="m199.81 281.741-7.22 32.51-16.86 2.97 8.46-38.96c.96-4.31 5.23-7.03 9.54-6.07 4.32.96 7.04 5.23 6.08 9.55z" fill="#f9cfac"/></svg>